<?xml version="1.0" standalone="no"?><!DOCTYPE svg PUBLIC "-//W3C//DTD SVG 1.1//EN" "http://www.w3.org/Graphics/SVG/1.1/DTD/svg11.dtd"><svg t="1774863696405" class="icon" viewBox="0 0 1024 1024" version="1.1" xmlns="http://www.w3.org/2000/svg" p-id="5396" xmlns:xlink="http://www.w3.org/1999/xlink" width="256" height="256"><path d="M934.016 1024c32 0 57.984-27.648 57.984-61.76V433.92c0-14.08-4.48-27.648-12.736-38.656L699.904 23.168A56.704 56.704 0 0 0 654.656 0H217.92C185.984 0 160 27.648 160 61.76v900.48c0 34.112 25.984 61.76 57.984 61.76h716.032z" fill="#FFFFFF" p-id="5397"></path><path d="M934.016 1024c32 0 57.984-27.648 57.984-61.76V433.92c0-14.08-4.48-27.648-12.736-38.656L699.904 23.168A56.704 56.704 0 0 0 654.656 0H217.92C185.984 0 160 27.648 160 61.76v900.48c0 34.112 25.984 61.76 57.984 61.76h716.032z m0-28.608H217.984a32 32 0 0 1-31.104-30.912V61.76c0-17.408 12.608-31.872 28.928-33.088l2.176-0.064h436.608c5.696 0 11.2 1.6 16 4.736a15.488 15.488 0 0 0-0.64 4.672v316.16c0 34.176 25.92 61.824 57.92 61.824h232.32c2.752 4.48 4.48 9.728 4.864 15.104l0.128 2.816v528.32a32.384 32.384 0 0 1-28.992 33.088l-2.176 0.064z m7.04-605.12h-213.12c-17.856 0-32.64-14.72-33.792-33.728l-0.064-2.304V67.008l243.776 318.912 3.2 4.352z" fill="#10263A" fill-opacity=".45" p-id="5398"></path><path d="M32 320m64 0l384 0q64 0 64 64l0 384q0 64-64 64l-384 0q-64 0-64-64l0-384q0-64 64-64Z" fill="#1976D2" p-id="5399"></path><path d="M595.2 480m12.8 0l102.4 0q12.8 0 12.8 12.8l0 38.4q0 12.8-12.8 12.8l-102.4 0q-12.8 0-12.8-12.8l0-38.4q0-12.8 12.8-12.8Z" fill="#10263A" fill-opacity=".25" p-id="5400"></path><path d="M595.2 608m12.8 0l102.4 0q12.8 0 12.8 12.8l0 38.4q0 12.8-12.8 12.8l-102.4 0q-12.8 0-12.8-12.8l0-38.4q0-12.8 12.8-12.8Z" fill="#10263A" fill-opacity=".25" p-id="5401"></path><path d="M595.2 736m12.8 0l102.4 0q12.8 0 12.8 12.8l0 38.4q0 12.8-12.8 12.8l-102.4 0q-12.8 0-12.8-12.8l0-38.4q0-12.8 12.8-12.8Z" fill="#10263A" fill-opacity=".25" p-id="5402"></path><path d="M595.2 864m12.8 0l102.4 0q12.8 0 12.8 12.8l0 38.4q0 12.8-12.8 12.8l-102.4 0q-12.8 0-12.8-12.8l0-38.4q0-12.8 12.8-12.8Z" fill="#10263A" fill-opacity=".25" p-id="5403"></path><path d="M723.2 544m12.8 0l102.4 0q12.8 0 12.8 12.8l0 38.4q0 12.8-12.8 12.8l-102.4 0q-12.8 0-12.8-12.8l0-38.4q0-12.8 12.8-12.8Z" fill="#10263A" fill-opacity=".25" p-id="5404"></path><path d="M723.2 672m12.8 0l102.4 0q12.8 0 12.8 12.8l0 38.4q0 12.8-12.8 12.8l-102.4 0q-12.8 0-12.8-12.8l0-38.4q0-12.8 12.8-12.8Z" fill="#10263A" fill-opacity=".25" p-id="5405"></path><path d="M723.2 800m12.8 0l102.4 0q12.8 0 12.8 12.8l0 38.4q0 12.8-12.8 12.8l-102.4 0q-12.8 0-12.8-12.8l0-38.4q0-12.8 12.8-12.8Z" fill="#10263A" fill-opacity=".25" p-id="5406"></path><path d="M228.736 723.2V616.448h71.04c65.664 0 98.688-28.032 98.688-84.096 0-55.68-32.64-83.328-97.92-83.328H186.88V723.2h41.856z m68.352-142.464H228.736v-96h68.352c20.352 0 35.328 3.84 44.928 11.52 9.6 6.912 14.592 19.2 14.592 36.096 0 16.896-4.992 29.184-14.208 36.864-9.6 7.68-24.576 11.52-45.312 11.52z" fill="#FFFFFF" p-id="5407"></path></svg>